<svg width="512" height="512" viewBox="0 0 512 512" fill="none" xmlns="http://www.w3.org/2000/svg">
<mask id="mask0_13_79" style="mask-type:alpha" maskUnits="userSpaceOnUse" x="0" y="0" width="512" height="512">
<rect width="512" height="512" fill="#D9D9D9"/>
</mask>
<g mask="url(#mask0_13_79)">
<rect width="512" height="512" rx="128" fill="#CC332D"/>
<path d="M65.0455 378V133.636H130.75V176.273H133.295C137.75 161.106 145.227 149.652 155.727 141.909C166.227 134.061 178.318 130.136 192 130.136C195.394 130.136 199.053 130.348 202.977 130.773C206.902 131.197 210.348 131.78 213.318 132.523V192.659C210.136 191.705 205.735 190.856 200.114 190.114C194.492 189.371 189.348 189 184.682 189C174.712 189 165.803 191.174 157.955 195.523C150.212 199.765 144.061 205.705 139.5 213.341C135.045 220.977 132.818 229.78 132.818 239.75V378H65.0455ZM451.676 203.318L389.631 207.136C388.57 201.833 386.29 197.061 382.79 192.818C379.29 188.47 374.676 185.023 368.949 182.477C363.328 179.826 356.593 178.5 348.744 178.5C338.244 178.5 329.388 180.727 322.176 185.182C314.964 189.53 311.358 195.364 311.358 202.682C311.358 208.515 313.691 213.447 318.358 217.477C323.025 221.508 331.032 224.742 342.381 227.182L386.608 236.091C410.366 240.97 428.078 248.818 439.744 259.636C451.411 270.455 457.244 284.667 457.244 302.273C457.244 318.288 452.525 332.341 443.085 344.432C433.752 356.523 420.919 365.962 404.585 372.75C388.358 379.432 369.638 382.773 348.426 382.773C316.078 382.773 290.305 376.038 271.108 362.568C252.017 348.992 240.828 330.538 237.54 307.205L304.199 303.705C306.214 313.568 311.093 321.098 318.835 326.295C326.578 331.386 336.494 333.932 348.585 333.932C360.464 333.932 370.009 331.652 377.222 327.091C384.54 322.424 388.252 316.432 388.358 309.114C388.252 302.962 385.653 297.924 380.562 294C375.472 289.97 367.623 286.894 357.017 284.773L314.699 276.341C290.835 271.568 273.07 263.295 261.403 251.523C249.843 239.75 244.062 224.742 244.062 206.5C244.062 190.803 248.305 177.28 256.79 165.932C265.381 154.583 277.419 145.833 292.903 139.682C308.494 133.53 326.737 130.455 347.631 130.455C378.494 130.455 402.782 136.977 420.494 150.023C438.313 163.068 448.706 180.833 451.676 203.318Z" fill="white"/>
</g>
</svg>
